<svg width="22" height="13" viewBox="0 0 22 13" fill="none" xmlns="http://www.w3.org/2000/svg">
<path d="M7.94482 10.5584C7.83081 11.236 7.43192 11.856 6.82142 12.3045C6.21092 12.7531 5.42982 13 4.62157 13C3.81333 13 3.03222 12.7531 2.42173 12.3045C1.81123 11.856 1.41234 11.236 1.29832 10.5584H0.305664V0.812182C0.305664 0.596778 0.406711 0.390196 0.586575 0.237883C0.76644 0.0855691 1.01039 0 1.26476 0H14.692C14.9464 0 15.1903 0.0855691 15.3702 0.237883C15.5501 0.390196 15.6511 0.596778 15.6511 0.812182V2.43655H18.5284L21.4057 5.73076V10.5584H19.4539C19.3399 11.236 18.941 11.856 18.3305 12.3045C17.72 12.7531 16.9389 13 16.1307 13C15.3224 13 14.5413 12.7531 13.9308 12.3045C13.3203 11.856 12.9214 11.236 12.8074 10.5584H7.94482ZM13.7329 1.62436H2.22385V8.16243C2.60227 7.83528 3.06842 7.59039 3.58264 7.44862C4.09686 7.30684 4.64391 7.27236 5.17725 7.34813C5.71058 7.42389 6.21441 7.60766 6.64584 7.88377C7.07727 8.15989 7.42354 8.52019 7.65518 8.934H13.0971C13.2582 8.6473 13.474 8.38659 13.7329 8.16243V1.62436ZM15.6511 6.49746H19.4875V6.26599L17.5616 4.06091H15.6511V6.49746ZM16.1307 11.3705C16.5123 11.3705 16.8784 11.2422 17.1483 11.0136C17.4182 10.7851 17.5698 10.4751 17.5698 10.1519C17.5698 9.82866 17.4182 9.51868 17.1483 9.29013C16.8784 9.06159 16.5123 8.93319 16.1307 8.93319C15.749 8.93319 15.3829 9.06159 15.1131 9.29013C14.8432 9.51868 14.6915 9.82866 14.6915 10.1519C14.6915 10.4751 14.8432 10.7851 15.1131 11.0136C15.3829 11.2422 15.749 11.3705 16.1307 11.3705ZM6.06021 10.1523C6.06021 9.99229 6.023 9.83387 5.9507 9.68606C5.8784 9.53825 5.77243 9.40395 5.63884 9.29083C5.50525 9.1777 5.34666 9.08796 5.17212 9.02674C4.99757 8.96552 4.8105 8.934 4.62157 8.934C4.43265 8.934 4.24557 8.96552 4.07103 9.02674C3.89649 9.08796 3.73789 9.1777 3.6043 9.29083C3.47071 9.40395 3.36474 9.53825 3.29245 9.68606C3.22015 9.83387 3.18294 9.99229 3.18294 10.1523C3.18294 10.4754 3.33451 10.7853 3.6043 11.0137C3.8741 11.2422 4.24002 11.3705 4.62157 11.3705C5.00312 11.3705 5.36905 11.2422 5.63884 11.0137C5.90864 10.7853 6.06021 10.4754 6.06021 10.1523Z" fill="#101010"/>
</svg>
