<svg width="23" height="20" viewBox="0 0 23 20" fill="none" xmlns="http://www.w3.org/2000/svg">
<path d="M11.4872 1.65429C14.0711 -0.627558 18.064 -0.551821 20.5533 1.90098C23.0414 4.35486 23.1272 8.2629 20.8129 10.812L11.485 20L2.1594 10.812C-0.154953 8.2629 -0.0680546 4.34837 2.419 1.90098C4.91045 -0.548575 8.89568 -0.630804 11.4872 1.65429ZM18.9957 3.42979C17.3457 1.80469 14.6838 1.73869 12.9568 3.26425L11.4883 4.56044L10.0188 3.26533C8.28629 1.73761 5.62984 1.80469 3.97547 3.43195C2.3365 5.04407 2.254 7.62455 3.76427 9.32971L11.4861 16.937L19.208 9.3308C20.7194 7.62455 20.6369 5.04732 18.9957 3.42979Z" fill="currentColor"/>
</svg>
