<svg width="20" height="20" viewBox="0 0 20 20" fill="none" xmlns="http://www.w3.org/2000/svg">
<g clip-path="url(#clip0_4158_335)">
<path d="M1.66699 9.99996C1.66699 14.6025 5.39783 18.3333 10.0003 18.3333C14.6028 18.3333 18.3337 14.6025 18.3337 9.99996C18.3337 5.39746 14.6028 1.66663 10.0003 1.66663C5.39783 1.66663 1.66699 5.39746 1.66699 9.99996Z" stroke="#838383" stroke-width="1.5" stroke-linecap="round" stroke-linejoin="round"/>
<path d="M10.834 1.70825C10.834 1.70825 13.334 4.99992 13.334 9.99992C13.334 14.9999 10.834 18.2916 10.834 18.2916" stroke="#838383" stroke-width="1.5" stroke-linecap="round" stroke-linejoin="round"/>
<path d="M9.16699 18.2916C9.16699 18.2916 6.66699 14.9999 6.66699 9.99992C6.66699 4.99992 9.16699 1.70825 9.16699 1.70825" stroke="#838383" stroke-width="1.5" stroke-linecap="round" stroke-linejoin="round"/>
<path d="M2.19238 12.9166H17.8091" stroke="#838383" stroke-width="1.5" stroke-linecap="round" stroke-linejoin="round"/>
<path d="M2.19238 7.08325H17.8091" stroke="#838383" stroke-width="1.5" stroke-linecap="round" stroke-linejoin="round"/>
</g>
<defs>
<clipPath id="clip0_4158_335">
<rect width="20" height="20" fill="white"/>
</clipPath>
</defs>
</svg>
