<svg width="22" height="22" viewBox="0 0 22 22" fill="none" xmlns="http://www.w3.org/2000/svg">
<path d="M11.148 22L3.75956 15.5563C2.29828 14.2819 1.30314 12.6581 0.899985 10.8905C0.496826 9.12277 0.703755 7.29051 1.4946 5.62539C2.28545 3.96027 3.6247 2.53707 5.343 1.53576C7.0613 0.534448 9.08146 0 11.148 0C13.2146 0 15.2348 0.534448 16.9531 1.53576C18.6714 2.53707 20.0106 3.96027 20.8015 5.62539C21.5923 7.29051 21.7992 9.12277 21.3961 10.8905C20.9929 12.6581 19.9978 14.2819 18.5365 15.5563L11.148 22ZM16.8949 14.1246C18.0314 13.1333 18.8053 11.8704 19.1188 10.4956C19.4323 9.12075 19.2713 7.69569 18.6562 6.40064C18.0411 5.10558 16.9994 3.99868 15.663 3.21991C14.3266 2.44114 12.7553 2.02548 11.148 2.02548C9.54073 2.02548 7.96952 2.44114 6.63308 3.21991C5.29665 3.99868 4.25501 5.10558 3.63988 6.40064C3.02475 7.69569 2.86377 9.12075 3.17728 10.4956C3.49079 11.8704 4.26471 13.1333 5.40119 14.1246L11.148 19.1366L16.8949 14.1246ZM11.148 11.1377C10.5322 11.1377 9.94162 10.9243 9.50616 10.5445C9.07071 10.1648 8.82608 9.64969 8.82608 9.11262C8.82608 8.57554 9.07071 8.06047 9.50616 7.6807C9.94162 7.30093 10.5322 7.08757 11.148 7.08757C11.7639 7.08757 12.3545 7.30093 12.7899 7.6807C13.2254 8.06047 13.47 8.57554 13.47 9.11262C13.47 9.64969 13.2254 10.1648 12.7899 10.5445C12.3545 10.9243 11.7639 11.1377 11.148 11.1377Z" fill="#101010"/>
</svg>
