<svg width="15" height="16" viewBox="0 0 15 16" fill="none" xmlns="http://www.w3.org/2000/svg">
<path d="M0 5.77778V0.888889C0 0.653141 0.0760186 0.427048 0.211333 0.260349C0.346647 0.0936505 0.530172 0 0.721535 0H13.7092C13.9005 0 14.0841 0.0936505 14.2194 0.260349C14.3547 0.427048 14.4307 0.653141 14.4307 0.888889V5.77778C13.9523 5.77778 13.4935 6.0119 13.1552 6.42865C12.8169 6.8454 12.6269 7.41063 12.6269 8C12.6269 8.58937 12.8169 9.1546 13.1552 9.57135C13.4935 9.9881 13.9523 10.2222 14.4307 10.2222V15.1111C14.4307 15.3469 14.3547 15.573 14.2194 15.7397C14.0841 15.9064 13.9005 16 13.7092 16H0.721535C0.530172 16 0.346647 15.9064 0.211333 15.7397C0.0760186 15.573 0 15.3469 0 15.1111V10.2222C0.478408 10.2222 0.937221 9.9881 1.27551 9.57135C1.61379 9.1546 1.80384 8.58937 1.80384 8C1.80384 7.41063 1.61379 6.8454 1.27551 6.42865C0.937221 6.0119 0.478408 5.77778 0 5.77778ZM8.65842 1.77778H1.44307V4.416C1.98509 4.74693 2.44129 5.25782 2.76024 5.89107C3.07918 6.52433 3.24818 7.25475 3.24818 8C3.24818 8.74525 3.07918 9.47567 2.76024 10.1089C2.44129 10.7422 1.98509 11.2531 1.44307 11.584V14.2222H8.65842V1.77778ZM10.1015 1.77778V14.2222H12.9876V11.584C12.4456 11.2531 11.9894 10.7422 11.6705 10.1089C11.3515 9.47567 11.1825 8.74525 11.1825 8C11.1825 7.25475 11.3515 6.52433 11.6705 5.89107C11.9894 5.25782 12.4456 4.74693 12.9876 4.416V1.77778H10.1015Z" fill="#101010"/>
</svg>
