<svg width="15" height="17" viewBox="0 0 15 17" fill="none" xmlns="http://www.w3.org/2000/svg">
<path d="M14.1667 17H0.833333C0.61232 17 0.400358 16.9104 0.244078 16.751C0.0877973 16.5916 0 16.3754 0 16.15V0.85C0 0.624566 0.0877973 0.408365 0.244078 0.248959C0.400358 0.0895533 0.61232 0 0.833333 0H14.1667C14.3877 0 14.5996 0.0895533 14.7559 0.248959C14.9122 0.408365 15 0.624566 15 0.85V16.15C15 16.3754 14.9122 16.5916 14.7559 16.751C14.5996 16.9104 14.3877 17 14.1667 17ZM13.3333 15.3V1.7H1.66667V15.3H13.3333ZM3.33333 3.4H6.66667V6.8H3.33333V3.4ZM3.33333 8.5H11.6667V10.2H3.33333V8.5ZM3.33333 11.9H11.6667V13.6H3.33333V11.9ZM8.33333 4.25H11.6667V5.95H8.33333V4.25Z" fill="#101010"/>
</svg>
