<svg width="24" height="25" viewBox="0 0 24 25" fill="none" xmlns="http://www.w3.org/2000/svg">
<path d="M4.08637 6.04598L0.486328 2.50532L2.05712 0.959961L5.65605 4.50172H22.5762C22.7492 4.50171 22.9198 4.54149 23.0744 4.61789C23.2291 4.69428 23.3634 4.80518 23.4667 4.94173C23.57 5.07828 23.6395 5.2367 23.6695 5.40435C23.6995 5.57199 23.6893 5.74422 23.6396 5.90729L20.9754 14.6443C20.9069 14.8693 20.7664 15.0667 20.5748 15.2069C20.3832 15.3472 20.1507 15.423 19.9119 15.423H6.30657V17.6072H18.5176V19.7915H5.19647C4.90205 19.7915 4.6197 19.6764 4.41151 19.4716C4.20333 19.2668 4.08637 18.989 4.08637 18.6993V6.04598ZM6.30657 6.68597V13.2387H19.086L21.0842 6.68597H6.30657ZM5.75152 24.16C5.3099 24.16 4.88636 23.9874 4.57408 23.6801C4.26181 23.3729 4.08637 22.9562 4.08637 22.5218C4.08637 22.0873 4.26181 21.6706 4.57408 21.3634C4.88636 21.0562 5.3099 20.8836 5.75152 20.8836C6.19314 20.8836 6.61668 21.0562 6.92896 21.3634C7.24123 21.6706 7.41667 22.0873 7.41667 22.5218C7.41667 22.9562 7.24123 23.3729 6.92896 23.6801C6.61668 23.9874 6.19314 24.16 5.75152 24.16ZM19.0727 24.16C18.6311 24.16 18.2075 23.9874 17.8953 23.6801C17.583 23.3729 17.4075 22.9562 17.4075 22.5218C17.4075 22.0873 17.583 21.6706 17.8953 21.3634C18.2075 21.0562 18.6311 20.8836 19.0727 20.8836C19.5143 20.8836 19.9378 21.0562 20.2501 21.3634C20.5624 21.6706 20.7378 22.0873 20.7378 22.5218C20.7378 22.9562 20.5624 23.3729 20.2501 23.6801C19.9378 23.9874 19.5143 24.16 19.0727 24.16Z" fill="#838383"/>
</svg>
