<svg width="18" height="16" viewBox="0 0 18 16" fill="none" xmlns="http://www.w3.org/2000/svg">
<path d="M0 0H17.7125V2H0V0ZM0 14H17.7125V16H0V14ZM14.9929 10.914L14.8528 10.044H13.2836L13.034 10.907L11.7764 10.91C12.5856 8.504 13.1854 6.72 13.5767 5.562C13.6789 5.259 13.8609 5.105 14.1282 5.107C14.3327 5.109 14.6668 5.109 15.1305 5.107L16.1023 10.912L14.9929 10.915V10.914ZM13.637 8.852H14.6483L14.2699 6.672L13.637 8.852ZM5.53275 5.106L6.79678 5.108L4.84277 10.914L3.56263 10.913C3.13029 8.843 2.81227 7.307 2.60938 6.308C2.54738 6.001 2.4242 5.787 2.18589 5.686C1.97414 5.596 1.6215 5.456 1.12716 5.267V5.107H3.1472C3.49662 5.107 3.70031 5.317 3.76633 5.747L4.2655 9.036L5.53275 5.106ZM8.53342 5.108L7.53507 10.913L6.33143 10.911L7.32977 5.106L8.53342 5.108ZM10.9745 5C11.3336 5 11.7877 5.138 12.0485 5.267L11.8376 6.471C11.6017 6.353 11.2136 6.194 10.8876 6.201C10.4126 6.21 10.1195 6.457 10.1195 6.694C10.1195 7.078 10.6283 7.272 11.1533 7.693C11.7515 8.173 11.8296 8.603 11.8223 9.071C11.8143 10.042 11.1533 11 9.758 11C9.12115 10.988 8.89169 10.922 8.3732 10.694L8.59219 9.438C9.12034 9.712 9.34497 9.799 9.79584 9.799C10.2105 9.799 10.5655 9.592 10.5687 9.231C10.5704 8.974 10.444 8.847 9.9794 8.529C9.51485 8.212 8.86432 7.773 8.87237 6.889C8.88284 5.759 9.74753 5 10.9737 5H10.9745Z" fill="#101010"/>
</svg>
